<svg version="1" xmlns="http://www.w3.org/2000/svg" width="682.667" height="682.667" viewBox="0 0 512.000000 512.000000"><path d="M0 256v256h512V0H0v256zm323.9-155.5c2.8 7.1 4.9 13 4.7 13.2-.1.2-23.2 9.6-51.2 21-28 11.3-57.9 23.4-66.4 26.9l-15.5 6.3 99 .3c98.7.3 99 .3 103.6 2.4 6.7 3.1 12.4 8.7 15.6 15.2l2.8 5.7v211l-2.8 5.7c-3 6.1-7.4 10.5-14 14l-4.2 2.3-137.4.3c-123.8.2-138 .1-142.3-1.4-6.5-2.1-14.9-9.9-17.9-16.6l-2.4-5.3-.3-102.4c-.2-88.3 0-103.2 1.3-108.2 2.6-10.4 7.8-16.1 19-20.9 6.1-2.7 42.6-17.5 105-42.9 25.9-10.4 58.5-23.7 72.5-29.5 14-5.8 25.5-10.4 25.6-10.3.1.1 2.5 6 5.3 13.2z"/><path d="M126.2 232.2l.3 32.3 97.3.3 97.2.2v-33h32v33h33v-65H126l.2 32.2zM163.7 298.1c-17.9 4.2-34.1 22.1-36.7 40.4-3.9 28.9 19 55.4 48 55.5 13.2 0 24.5-4.7 34-14.1 16.7-16.8 19.4-41.9 6.4-61.4-6.2-9.5-17-17.2-27.8-20.1-5.7-1.5-18-1.7-23.9-.3z"/></svg>